<svg width="176" height="176" viewBox="0 0 176 176" fill="none" xmlns="http://www.w3.org/2000/svg">
<rect x="24" y="24" width="128" height="128" rx="12" fill="#009FB7" stroke="#3F496D" stroke-width="8"/>
<path d="M43.267 46.3409C42.2159 46.3409 41.3139 45.9645 40.5611 45.2116C39.8082 44.4588 39.4318 43.5568 39.4318 42.5057C39.4318 41.4545 39.8082 40.5526 40.5611 39.7997C41.3139 39.0469 42.2159 38.6705 43.267 38.6705C44.3182 38.6705 45.2202 39.0469 45.973 39.7997C46.7259 40.5526 47.1023 41.4545 47.1023 42.5057C47.1023 43.2017 46.9247 43.8409 46.5696 44.4233C46.2287 45.0057 45.767 45.4744 45.1847 45.8295C44.6165 46.1705 43.9773 46.3409 43.267 46.3409ZM65.7905 46.3409C64.7393 46.3409 63.8374 45.9645 63.0845 45.2116C62.3317 44.4588 61.9553 43.5568 61.9553 42.5057C61.9553 41.4545 62.3317 40.5526 63.0845 39.7997C63.8374 39.0469 64.7393 38.6705 65.7905 38.6705C66.8416 38.6705 67.7436 39.0469 68.4964 39.7997C69.2493 40.5526 69.6257 41.4545 69.6257 42.5057C69.6257 43.2017 69.4482 43.8409 69.093 44.4233C68.7521 45.0057 68.2905 45.4744 67.7081 45.8295C67.1399 46.1705 66.5007 46.3409 65.7905 46.3409ZM88.3139 46.3409C87.2628 46.3409 86.3608 45.9645 85.608 45.2116C84.8551 44.4588 84.4787 43.5568 84.4787 42.5057C84.4787 41.4545 84.8551 40.5526 85.608 39.7997C86.3608 39.0469 87.2628 38.6705 88.3139 38.6705C89.3651 38.6705 90.267 39.0469 91.0199 39.7997C91.7727 40.5526 92.1491 41.4545 92.1491 42.5057C92.1491 43.2017 91.9716 43.8409 91.6165 44.4233C91.2756 45.0057 90.8139 45.4744 90.2315 45.8295C89.6634 46.1705 89.0241 46.3409 88.3139 46.3409ZM110.837 46.3409C109.786 46.3409 108.884 45.9645 108.131 45.2116C107.379 44.4588 107.002 43.5568 107.002 42.5057C107.002 41.4545 107.379 40.5526 108.131 39.7997C108.884 39.0469 109.786 38.6705 110.837 38.6705C111.888 38.6705 112.79 39.0469 113.543 39.7997C114.296 40.5526 114.673 41.4545 114.673 42.5057C114.673 43.2017 114.495 43.8409 114.14 44.4233C113.799 45.0057 113.337 45.4744 112.755 45.8295C112.187 46.1705 111.548 46.3409 110.837 46.3409ZM133.361 46.3409C132.31 46.3409 131.408 45.9645 130.655 45.2116C129.902 44.4588 129.526 43.5568 129.526 42.5057C129.526 41.4545 129.902 40.5526 130.655 39.7997C131.408 39.0469 132.31 38.6705 133.361 38.6705C134.412 38.6705 135.314 39.0469 136.067 39.7997C136.82 40.5526 137.196 41.4545 137.196 42.5057C137.196 43.2017 137.018 43.8409 136.663 44.4233C136.322 45.0057 135.861 45.4744 135.278 45.8295C134.71 46.1705 134.071 46.3409 133.361 46.3409ZM43.267 69.3409C42.2159 69.3409 41.3139 68.9645 40.5611 68.2116C39.8082 67.4588 39.4318 66.5568 39.4318 65.5057C39.4318 64.4545 39.8082 63.5526 40.5611 62.7997C41.3139 62.0469 42.2159 61.6705 43.267 61.6705C44.3182 61.6705 45.2202 62.0469 45.973 62.7997C46.7259 63.5526 47.1023 64.4545 47.1023 65.5057C47.1023 66.2017 46.9247 66.8409 46.5696 67.4233C46.2287 68.0057 45.767 68.4744 45.1847 68.8295C44.6165 69.1705 43.9773 69.3409 43.267 69.3409ZM65.7905 69.3409C64.7393 69.3409 63.8374 68.9645 63.0845 68.2116C62.3317 67.4588 61.9553 66.5568 61.9553 65.5057C61.9553 64.4545 62.3317 63.5526 63.0845 62.7997C63.8374 62.0469 64.7393 61.6705 65.7905 61.6705C66.8416 61.6705 67.7436 62.0469 68.4964 62.7997C69.2493 63.5526 69.6257 64.4545 69.6257 65.5057C69.6257 66.2017 69.4482 66.8409 69.093 67.4233C68.7521 68.0057 68.2905 68.4744 67.7081 68.8295C67.1399 69.1705 66.5007 69.3409 65.7905 69.3409ZM88.3139 69.3409C87.2628 69.3409 86.3608 68.9645 85.608 68.2116C84.8551 67.4588 84.4787 66.5568 84.4787 65.5057C84.4787 64.4545 84.8551 63.5526 85.608 62.7997C86.3608 62.0469 87.2628 61.6705 88.3139 61.6705C89.3651 61.6705 90.267 62.0469 91.0199 62.7997C91.7727 63.5526 92.1491 64.4545 92.1491 65.5057C92.1491 66.2017 91.9716 66.8409 91.6165 67.4233C91.2756 68.0057 90.8139 68.4744 90.2315 68.8295C89.6634 69.1705 89.0241 69.3409 88.3139 69.3409ZM110.837 69.3409C109.786 69.3409 108.884 68.9645 108.131 68.2116C107.379 67.4588 107.002 66.5568 107.002 65.5057C107.002 64.4545 107.379 63.5526 108.131 62.7997C108.884 62.0469 109.786 61.6705 110.837 61.6705C111.888 61.6705 112.79 62.0469 113.543 62.7997C114.296 63.5526 114.673 64.4545 114.673 65.5057C114.673 66.2017 114.495 66.8409 114.14 67.4233C113.799 68.0057 113.337 68.4744 112.755 68.8295C112.187 69.1705 111.548 69.3409 110.837 69.3409ZM133.361 69.3409C132.31 69.3409 131.408 68.9645 130.655 68.2116C129.902 67.4588 129.526 66.5568 129.526 65.5057C129.526 64.4545 129.902 63.5526 130.655 62.7997C131.408 62.0469 132.31 61.6705 133.361 61.6705C134.412 61.6705 135.314 62.0469 136.067 62.7997C136.82 63.5526 137.196 64.4545 137.196 65.5057C137.196 66.2017 137.018 66.8409 136.663 67.4233C136.322 68.0057 135.861 68.4744 135.278 68.8295C134.71 69.1705 134.071 69.3409 133.361 69.3409ZM43.267 92.3409C42.2159 92.3409 41.3139 91.9645 40.5611 91.2116C39.8082 90.4588 39.4318 89.5568 39.4318 88.5057C39.4318 87.4545 39.8082 86.5526 40.5611 85.7997C41.3139 85.0469 42.2159 84.6705 43.267 84.6705C44.3182 84.6705 45.2202 85.0469 45.973 85.7997C46.7259 86.5526 47.1023 87.4545 47.1023 88.5057C47.1023 89.2017 46.9247 89.8409 46.5696 90.4233C46.2287 91.0057 45.767 91.4744 45.1847 91.8295C44.6165 92.1705 43.9773 92.3409 43.267 92.3409ZM65.7905 92.3409C64.7393 92.3409 63.8374 91.9645 63.0845 91.2116C62.3317 90.4588 61.9553 89.5568 61.9553 88.5057C61.9553 87.4545 62.3317 86.5526 63.0845 85.7997C63.8374 85.0469 64.7393 84.6705 65.7905 84.6705C66.8416 84.6705 67.7436 85.0469 68.4964 85.7997C69.2493 86.5526 69.6257 87.4545 69.6257 88.5057C69.6257 89.2017 69.4482 89.8409 69.093 90.4233C68.7521 91.0057 68.2905 91.4744 67.7081 91.8295C67.1399 92.1705 66.5007 92.3409 65.7905 92.3409ZM88.3139 92.3409C87.2628 92.3409 86.3608 91.9645 85.608 91.2116C84.8551 90.4588 84.4787 89.5568 84.4787 88.5057C84.4787 87.4545 84.8551 86.5526 85.608 85.7997C86.3608 85.0469 87.2628 84.6705 88.3139 84.6705C89.3651 84.6705 90.267 85.0469 91.0199 85.7997C91.7727 86.5526 92.1491 87.4545 92.1491 88.5057C92.1491 89.2017 91.9716 89.8409 91.6165 90.4233C91.2756 91.0057 90.8139 91.4744 90.2315 91.8295C89.6634 92.1705 89.0241 92.3409 88.3139 92.3409ZM110.837 92.3409C109.786 92.3409 108.884 91.9645 108.131 91.2116C107.379 90.4588 107.002 89.5568 107.002 88.5057C107.002 87.4545 107.379 86.5526 108.131 85.7997C108.884 85.0469 109.786 84.6705 110.837 84.6705C111.888 84.6705 112.79 85.0469 113.543 85.7997C114.296 86.5526 114.673 87.4545 114.673 88.5057C114.673 89.2017 114.495 89.8409 114.14 90.4233C113.799 91.0057 113.337 91.4744 112.755 91.8295C112.187 92.1705 111.548 92.3409 110.837 92.3409ZM133.361 92.3409C132.31 92.3409 131.408 91.9645 130.655 91.2116C129.902 90.4588 129.526 89.5568 129.526 88.5057C129.526 87.4545 129.902 86.5526 130.655 85.7997C131.408 85.0469 132.31 84.6705 133.361 84.6705C134.412 84.6705 135.314 85.0469 136.067 85.7997C136.82 86.5526 137.196 87.4545 137.196 88.5057C137.196 89.2017 137.018 89.8409 136.663 90.4233C136.322 91.0057 135.861 91.4744 135.278 91.8295C134.71 92.1705 134.071 92.3409 133.361 92.3409ZM43.267 115.341C42.2159 115.341 41.3139 114.964 40.5611 114.212C39.8082 113.459 39.4318 112.557 39.4318 111.506C39.4318 110.455 39.8082 109.553 40.5611 108.8C41.3139 108.047 42.2159 107.67 43.267 107.67C44.3182 107.67 45.2202 108.047 45.973 108.8C46.7259 109.553 47.1023 110.455 47.1023 111.506C47.1023 112.202 46.9247 112.841 46.5696 113.423C46.2287 114.006 45.767 114.474 45.1847 114.83C44.6165 115.17 43.9773 115.341 43.267 115.341ZM65.7905 115.341C64.7393 115.341 63.8374 114.964 63.0845 114.212C62.3317 113.459 61.9553 112.557 61.9553 111.506C61.9553 110.455 62.3317 109.553 63.0845 108.8C63.8374 108.047 64.7393 107.67 65.7905 107.67C66.8416 107.67 67.7436 108.047 68.4964 108.8C69.2493 109.553 69.6257 110.455 69.6257 111.506C69.6257 112.202 69.4482 112.841 69.093 113.423C68.7521 114.006 68.2905 114.474 67.7081 114.83C67.1399 115.17 66.5007 115.341 65.7905 115.341ZM88.3139 115.341C87.2628 115.341 86.3608 114.964 85.608 114.212C84.8551 113.459 84.4787 112.557 84.4787 111.506C84.4787 110.455 84.8551 109.553 85.608 108.8C86.3608 108.047 87.2628 107.67 88.3139 107.67C89.3651 107.67 90.267 108.047 91.0199 108.8C91.7727 109.553 92.1491 110.455 92.1491 111.506C92.1491 112.202 91.9716 112.841 91.6165 113.423C91.2756 114.006 90.8139 114.474 90.2315 114.83C89.6634 115.17 89.0241 115.341 88.3139 115.341ZM110.837 115.341C109.786 115.341 108.884 114.964 108.131 114.212C107.379 113.459 107.002 112.557 107.002 111.506C107.002 110.455 107.379 109.553 108.131 108.8C108.884 108.047 109.786 107.67 110.837 107.67C111.888 107.67 112.79 108.047 113.543 108.8C114.296 109.553 114.673 110.455 114.673 111.506C114.673 112.202 114.495 112.841 114.14 113.423C113.799 114.006 113.337 114.474 112.755 114.83C112.187 115.17 111.548 115.341 110.837 115.341ZM133.361 115.341C132.31 115.341 131.408 114.964 130.655 114.212C129.902 113.459 129.526 112.557 129.526 111.506C129.526 110.455 129.902 109.553 130.655 108.8C131.408 108.047 132.31 107.67 133.361 107.67C134.412 107.67 135.314 108.047 136.067 108.8C136.82 109.553 137.196 110.455 137.196 111.506C137.196 112.202 137.018 112.841 136.663 113.423C136.322 114.006 135.861 114.474 135.278 114.83C134.71 115.17 134.071 115.341 133.361 115.341ZM43.267 138.341C42.2159 138.341 41.3139 137.964 40.5611 137.212C39.8082 136.459 39.4318 135.557 39.4318 134.506C39.4318 133.455 39.8082 132.553 40.5611 131.8C41.3139 131.047 42.2159 130.67 43.267 130.67C44.3182 130.67 45.2202 131.047 45.973 131.8C46.7259 132.553 47.1023 133.455 47.1023 134.506C47.1023 135.202 46.9247 135.841 46.5696 136.423C46.2287 137.006 45.767 137.474 45.1847 137.83C44.6165 138.17 43.9773 138.341 43.267 138.341ZM65.7905 138.341C64.7393 138.341 63.8374 137.964 63.0845 137.212C62.3317 136.459 61.9553 135.557 61.9553 134.506C61.9553 133.455 62.3317 132.553 63.0845 131.8C63.8374 131.047 64.7393 130.67 65.7905 130.67C66.8416 130.67 67.7436 131.047 68.4964 131.8C69.2493 132.553 69.6257 133.455 69.6257 134.506C69.6257 135.202 69.4482 135.841 69.093 136.423C68.7521 137.006 68.2905 137.474 67.7081 137.83C67.1399 138.17 66.5007 138.341 65.7905 138.341ZM88.3139 138.341C87.2628 138.341 86.3608 137.964 85.608 137.212C84.8551 136.459 84.4787 135.557 84.4787 134.506C84.4787 133.455 84.8551 132.553 85.608 131.8C86.3608 131.047 87.2628 130.67 88.3139 130.67C89.3651 130.67 90.267 131.047 91.0199 131.8C91.7727 132.553 92.1491 133.455 92.1491 134.506C92.1491 135.202 91.9716 135.841 91.6165 136.423C91.2756 137.006 90.8139 137.474 90.2315 137.83C89.6634 138.17 89.0241 138.341 88.3139 138.341ZM110.837 138.341C109.786 138.341 108.884 137.964 108.131 137.212C107.379 136.459 107.002 135.557 107.002 134.506C107.002 133.455 107.379 132.553 108.131 131.8C108.884 131.047 109.786 130.67 110.837 130.67C111.888 130.67 112.79 131.047 113.543 131.8C114.296 132.553 114.673 133.455 114.673 134.506C114.673 135.202 114.495 135.841 114.14 136.423C113.799 137.006 113.337 137.474 112.755 137.83C112.187 138.17 111.548 138.341 110.837 138.341ZM133.361 138.341C132.31 138.341 131.408 137.964 130.655 137.212C129.902 136.459 129.526 135.557 129.526 134.506C129.526 133.455 129.902 132.553 130.655 131.8C131.408 131.047 132.31 130.67 133.361 130.67C134.412 130.67 135.314 131.047 136.067 131.8C136.82 132.553 137.196 133.455 137.196 134.506C137.196 135.202 137.018 135.841 136.663 136.423C136.322 137.006 135.861 137.474 135.278 137.83C134.71 138.17 134.071 138.341 133.361 138.341Z" fill="#06B9D4"/>
<mask id="path-3-inside-1_0_1" fill="white">
<rect x="52" y="52" width="72" height="72" rx="4"/>
</mask>
<rect x="52" y="52" width="72" height="72" rx="4" fill="#06B9D4" stroke="#3F496D" stroke-width="12" mask="url(#path-3-inside-1_0_1)"/>
<path d="M88 152V172" stroke="#3F496D" stroke-width="8" stroke-linecap="round"/>
<path d="M66 152V172" stroke="#3F496D" stroke-width="8" stroke-linecap="round"/>
<path d="M133 152V172" stroke="#3F496D" stroke-width="8" stroke-linecap="round"/>
<path d="M111 152V172" stroke="#3F496D" stroke-width="8" stroke-linecap="round"/>
<path d="M43 152V172" stroke="#3F496D" stroke-width="8" stroke-linecap="round"/>
<path d="M172 88H152" stroke="#3F496D" stroke-width="8" stroke-linecap="round"/>
<path d="M172 65H152" stroke="#3F496D" stroke-width="8" stroke-linecap="round"/>
<path d="M172 133H152" stroke="#3F496D" stroke-width="8" stroke-linecap="round"/>
<path d="M172 110H152" stroke="#3F496D" stroke-width="8" stroke-linecap="round"/>
<path d="M172 43H152" stroke="#3F496D" stroke-width="8" stroke-linecap="round"/>
<path d="M24 88H4" stroke="#3F496D" stroke-width="8" stroke-linecap="round"/>
<path d="M24 65H4" stroke="#3F496D" stroke-width="8" stroke-linecap="round"/>
<path d="M24 133H4" stroke="#3F496D" stroke-width="8" stroke-linecap="round"/>
<path d="M24 110H4" stroke="#3F496D" stroke-width="8" stroke-linecap="round"/>
<path d="M24 43H4" stroke="#3F496D" stroke-width="8" stroke-linecap="round"/>
<path d="M88 4V24" stroke="#3F496D" stroke-width="8" stroke-linecap="round"/>
<path d="M66 4V24" stroke="#3F496D" stroke-width="8" stroke-linecap="round"/>
<path d="M133 4V24" stroke="#3F496D" stroke-width="8" stroke-linecap="round"/>
<path d="M111 4V24" stroke="#3F496D" stroke-width="8" stroke-linecap="round"/>
<path d="M43 4V24" stroke="#3F496D" stroke-width="8" stroke-linecap="round"/>
<line x1="4" y1="-4" x2="26" y2="-4" transform="matrix(-0.707107 -0.707107 -0.707107 0.707107 109.548 114.79)" stroke="#3F496D" stroke-width="8" stroke-linecap="round"/>
<circle cx="81.9706" cy="82.9706" r="15" transform="rotate(-45 81.9706 82.9706)" fill="#DEDEDE" fill-opacity="0.75" stroke="#3F496D" stroke-width="6"/>
<path d="M76.6673 88.2739C73.7383 85.3449 73.7383 80.5962 76.6673 77.6673" stroke="#EDEDED" stroke-width="4"/>
</svg>
